Units are S.I. units (second, meters, Newtons, ...)
Angles are in degrees.
name walk
datarows 21
datacolumns 22
range 75.00000 95.00000
endheader
time Pelvis_Z Pelvis_X Pelvis_Y FemurR_Z FemurR_X FemurR_Y TibiaR_Z TibiaR_X TibiaR_Y TalusR_Z TalusR_X TalusR_Y FemurL_Z FemurL_X FemurL_Y TibiaL_Z TibiaL_X TibiaL_Y TalusL_Z TalusL_X TalusL_Y
75.00000 12.84450 0.01943 -0.03136 22.68110 -1.73883 -3.81230 55.27590 3.31827 -15.74200 1.75615 -2.32953 6.17079 18.27800 1.09266 -14.45240 13.43170 -0.45531 -4.50604 6.72568 -1.67939 16.05020
76.00000 12.56435 0.02285 -0.03474 23.61860 -1.36683 -3.73067 54.13800 3.69140 -15.39310 2.76144 -1.91362 6.47973 16.71200 1.21974 -15.08410 12.32290 -0.63692 -4.07405 6.40301 -1.41686 16.27120
77.00000 12.33510 0.02843 -0.03850 24.52420 -0.99763 -3.65922 52.64590 4.05611 -15.04580 3.62528 -1.41858 6.76217 15.23930 1.33650 -15.68620 11.25880 -0.79623 -3.59845 6.08991 -1.17272 16.42600
78.00000 12.20145 0.03532 -0.04234 25.43310 -0.62787 -3.57458 50.79830 4.42535 -14.80540 4.36745 -0.88296 7.01543 13.89230 1.43254 -16.22430 10.22730 -0.92300 -3.11921 5.79831 -0.94721 16.53450
79.00000 12.18715 0.04107 -0.04693 26.35940 -0.25605 -3.45323 48.59880 4.79795 -14.77380 5.00716 -0.37215 7.23465 12.68580 1.50259 -16.67390 9.22091 -1.01164 -2.67018 5.52282 -0.72556 16.61830
80.00000 12.29455 0.04370 -0.05278 27.29940 0.11572 -3.26361 46.06090 5.16865 -15.02970 5.55268 0.07293 7.39626 11.61350 1.54841 -17.02090 8.23399 -1.05767 -2.28546 5.25055 -0.48991 16.69870
81.00000 12.50875 0.04276 -0.06010 28.23740 0.48470 -2.97879 43.21000 5.52390 -15.60330 6.00105 0.44424 7.45725 10.65210 1.57499 -17.26370 7.26447 -1.05876 -1.99928 4.97591 -0.23436 16.79720
82.00000 12.80185 0.03938 -0.06878 29.14740 0.85156 -2.61039 40.08300 5.82335 -16.45060 6.34778 0.73405 7.37108 9.77154 1.58520 -17.41350 6.32037 -1.01690 -1.82577 4.70777 0.03209 16.92420
83.00000 13.13990 0.03534 -0.07777 30.00030 1.21813 -2.20723 36.72430 6.00474 -17.47220 6.58849 0.92880 7.11606 8.94375 1.58124 -17.49180 5.42161 -0.93916 -1.74077 4.47129 0.28417 17.06540
84.00000 13.48965 0.03245 -0.08549 30.76920 1.58534 -1.82609 33.17840 6.00585 -18.57000 6.70955 1.03587 6.72274 8.14640 1.56800 -17.51970 4.59409 -0.83684 -1.69052 4.30063 0.49206 17.18480
85.00000 13.82105 0.03125 -0.09086 31.42940 1.95155 -1.50665 29.48370 5.78340 -19.69640 6.68111 1.09883 6.28394 7.36104 1.55160 -17.51070 3.86145 -0.72274 -1.61720 4.22219 0.65211 17.24560
86.00000 14.10750 0.03109 -0.09377 31.95930 2.30943 -1.26839 25.67590 5.31767 -20.85110 6.47018 1.18260 5.92664 6.56953 1.54016 -17.48320 3.23840 -0.60880 -1.47227 4.24652 0.78399 17.23160
87.00000 14.32595 0.03083 -0.09454 32.34330 2.64595 -1.11456 21.79560 4.61384 -22.03550 6.06942 1.33786 5.75771 5.74966 1.54631 -17.47380 2.72487 -0.50365 -1.21724 4.36800 0.90884 17.15000
88.00000 14.46215 0.02770 -0.09591 32.57560 2.94744 -1.03089 17.89060 3.70620 -23.20590 5.51142 1.58401 5.80314 4.88205 1.58045 -17.51250 2.30694 -0.41011 -0.83750 4.56675 1.04349 17.02000
89.00000 14.51805 0.01924 -0.10123 32.66910 3.20454 -1.00662 14.01810 2.65373 -24.23780 4.86303 1.90853 5.97296 3.96169 1.64382 -17.60480 1.96620 -0.32651 -0.34885 4.81954 1.19360 16.86680
90.00000 14.51145 0.00613 -0.11079 32.65620 3.41262 -1.04600 10.24320 1.53336 -24.94910 4.20547 2.27533 6.09793 3.00164 1.73003 -17.74570 1.68924 -0.25090 0.21568 5.10702 1.35547 16.72000
91.00000 14.47160 -0.00851 -0.12230 32.58290 3.56973 -1.14344 6.63511 0.43517 -25.19920 3.61117 2.64902 6.02309 2.03120 1.82700 -17.92650 1.47408 -0.18392 0.81618 5.41426 1.52118 16.60790
92.00000 14.43140 -0.02167 -0.13407 32.50240 3.67618 -1.27907 3.27086 -0.55363 -24.97030 3.12220 3.01775 5.70055 1.08955 1.91614 -18.13030 1.33222 -0.12896 1.41618 5.72959 1.68241 16.54790
93.00000 14.41875 -0.03207 -0.14624 32.46680 3.73598 -1.41839 0.24599 -1.36825 -24.39440 2.74021 3.40048 5.22401 0.21568 1.97141 -18.33080 1.28409 -0.09133 1.99189 6.03943 1.83768 16.53890
94.00000 14.44790 -0.03945 -0.15922 32.52020 3.75731 -1.51632 -2.31284 -1.97930 -23.69170 2.44261 3.83844 4.77466 -0.56361 1.96592 -18.50390 1.35118 -0.07864 2.53463 6.32641 1.99242 16.56810
95.00000 14.51520 -0.04342 -0.17201 32.69690 3.75026 -1.54217 -4.25061 -2.38790 -23.04580 2.20991 4.34316 4.51963 -1.24281 1.88151 -18.64320 1.54913 -0.09976 3.04307 6.57156 2.15488 16.63120
